G04 PROTEUS GERBER X2 FILE*
%TF.GenerationSoftware,Labcenter,Proteus,8.5-SP0-Build22067*%
%TF.CreationDate,2018-10-08T15:20:44+00:00*%
%TF.FileFunction,Copper,L16,Bot*%
%TF.FilePolarity,Positive*%
%TF.Part,Single*%
%FSLAX45Y45*%
%MOMM*%
G01*
%TA.AperFunction,NonConductor*%
%ADD10C,1.000000*%
%TA.AperFunction,ComponentPad*%
%ADD11C,3.048000*%
%ADD12R,2.032000X2.032000*%
%TA.AperFunction,Profile*%
%ADD13C,0.203200*%
D10*
X+230000Y+1450000D02*
X+230000Y+970000D01*
X+500000Y+700000D01*
X+840000Y+700000D01*
X+980000Y+730000D02*
X+840000Y+730000D01*
X+840000Y+700000D01*
X+840000Y+484000D01*
X+1720000Y+1450000D02*
X+1290000Y+1450000D01*
X+970000Y+2190000D02*
X+1160000Y+2190000D01*
X+1290000Y+2060000D01*
X+1290000Y+1450000D01*
X+1290000Y+900000D01*
X+1120000Y+730000D01*
X+980000Y+730000D01*
X+4650000Y+484000D02*
X+4650000Y+470000D01*
X+4860000Y+730000D02*
X+4758400Y+730000D01*
X+4650000Y+730000D01*
X+4650000Y+710000D01*
X+4650000Y+484000D01*
X+5630000Y+1450000D02*
X+5528400Y+1470000D01*
X+5190000Y+1470000D01*
X+4870000Y+2200000D02*
X+5190000Y+2200000D01*
X+5190000Y+1470000D01*
X+5190000Y+910000D01*
X+5010000Y+730000D01*
X+4860000Y+730000D01*
X+4130000Y+1450000D02*
X+4450000Y+1450000D01*
X+4450000Y+1050000D01*
X+4450000Y+910000D01*
X+4650000Y+710000D01*
X+2630000Y+1390000D02*
X+2630000Y+1050000D01*
X+3430000Y+1050000D01*
X+3480000Y+1050000D01*
X+3430000Y+1390000D02*
X+3430000Y+1050000D01*
X+3480000Y+1050000D02*
X+4450000Y+1050000D01*
D11*
X+350000Y+2650000D03*
X+350000Y+350000D03*
X+6150000Y+350000D03*
X+6150000Y+2650000D03*
D12*
X+840000Y+230000D03*
X+1094000Y+230000D03*
X+1348000Y+230000D03*
X+1602000Y+230000D03*
X+1856000Y+230000D03*
X+2110000Y+230000D03*
X+2364000Y+230000D03*
X+2618000Y+230000D03*
X+2872000Y+230000D03*
X+3126000Y+230000D03*
X+3380000Y+230000D03*
X+3634000Y+230000D03*
X+3888000Y+230000D03*
X+4142000Y+230000D03*
X+4396000Y+230000D03*
X+4650000Y+230000D03*
X+4904000Y+230000D03*
X+5158000Y+230000D03*
X+5412000Y+230000D03*
X+5666000Y+230000D03*
X+5666000Y+484000D03*
X+5412000Y+484000D03*
X+5158000Y+484000D03*
X+4904000Y+484000D03*
X+4650000Y+484000D03*
X+4396000Y+484000D03*
X+4142000Y+484000D03*
X+3888000Y+484000D03*
X+3634000Y+484000D03*
X+3380000Y+484000D03*
X+3126000Y+484000D03*
X+2872000Y+484000D03*
X+2618000Y+484000D03*
X+2364000Y+484000D03*
X+2110000Y+484000D03*
X+1856000Y+484000D03*
X+1602000Y+484000D03*
X+1348000Y+484000D03*
X+1094000Y+484000D03*
X+840000Y+484000D03*
X+1720000Y+1900000D03*
X+2370000Y+1900000D03*
X+1720000Y+1450000D03*
X+2370000Y+1450000D03*
X+980000Y+1180000D03*
X+1630000Y+1180000D03*
X+980000Y+730000D03*
X+1630000Y+730000D03*
X+230000Y+1900000D03*
X+880000Y+1900000D03*
X+230000Y+1450000D03*
X+880000Y+1450000D03*
X+970000Y+2640000D03*
X+1620000Y+2640000D03*
X+970000Y+2190000D03*
X+1620000Y+2190000D03*
X+3080000Y+1390000D03*
X+3080000Y+740000D03*
X+2630000Y+1390000D03*
X+2630000Y+740000D03*
X+3880000Y+1390000D03*
X+3880000Y+740000D03*
X+3430000Y+1390000D03*
X+3430000Y+740000D03*
X+4130000Y+1900000D03*
X+4780000Y+1900000D03*
X+4130000Y+1450000D03*
X+4780000Y+1450000D03*
X+4870000Y+2650000D03*
X+5520000Y+2650000D03*
X+4870000Y+2200000D03*
X+5520000Y+2200000D03*
X+5630000Y+1900000D03*
X+6280000Y+1900000D03*
X+5630000Y+1450000D03*
X+6280000Y+1450000D03*
X+4860000Y+1180000D03*
X+5510000Y+1180000D03*
X+4860000Y+730000D03*
X+5510000Y+730000D03*
D13*
X+300000Y+3000000D02*
X+238660Y+2994031D01*
X+181934Y+2976855D01*
X+130921Y+2949573D01*
X+86719Y+2913281D01*
X+50427Y+2869080D01*
X+23145Y+2818066D01*
X+5969Y+2761340D01*
X+0Y+2700000D01*
X+0Y+300000D02*
X+5969Y+238660D01*
X+23145Y+181934D01*
X+50427Y+130920D01*
X+86719Y+86719D01*
X+130921Y+50427D01*
X+181934Y+23145D01*
X+238660Y+5969D01*
X+300000Y+0D01*
X+6500000Y+300000D02*
X+6494031Y+238660D01*
X+6476855Y+181934D01*
X+6449573Y+130920D01*
X+6413281Y+86719D01*
X+6369079Y+50427D01*
X+6318066Y+23145D01*
X+6261340Y+5969D01*
X+6200000Y+0D01*
X+6500000Y+2700000D02*
X+6494031Y+2761340D01*
X+6476855Y+2818066D01*
X+6449573Y+2869080D01*
X+6413281Y+2913281D01*
X+6369079Y+2949573D01*
X+6318066Y+2976855D01*
X+6261340Y+2994031D01*
X+6200000Y+3000000D01*
X+0Y+2700000D02*
X+0Y+300000D01*
X+300000Y+3000000D02*
X+6200000Y+3000000D01*
X+6500000Y+2700000D02*
X+6500000Y+300000D01*
X+6200000Y+0D02*
X+300000Y+0D01*
M02*
