G04 PROTEUS GERBER X2 FILE*
%TF.GenerationSoftware,Labcenter,Proteus,8.5-SP0-Build22067*%
%TF.CreationDate,2018-10-08T15:10:15+00:00*%
%TF.FileFunction,Plated,1,16,PTH*%
%TF.FilePolarity,Positive*%
%TF.Part,Single*%
%FSLAX45Y45*%
%MOMM*%
G01*
%TA.AperFunction,ComponentDrill*%
%ADD16C,1.016000*%
%ADD17C,1.000000*%
%ADD18C,2.499360*%
D16*
X+3240000Y+2030000D03*
X+3494000Y+2030000D03*
X+3748000Y+2030000D03*
X+4002000Y+2030000D03*
X+4256000Y+2030000D03*
X+4510000Y+2030000D03*
X+4764000Y+2030000D03*
X+5018000Y+2030000D03*
X+5272000Y+2030000D03*
X+5526000Y+2030000D03*
X+5780000Y+2030000D03*
X+6034000Y+2030000D03*
X+6288000Y+2030000D03*
X+6542000Y+2030000D03*
X+6796000Y+2030000D03*
X+7050000Y+2030000D03*
X+7304000Y+2030000D03*
X+7558000Y+2030000D03*
X+7812000Y+2030000D03*
X+8066000Y+2030000D03*
X+8066000Y+2284000D03*
X+7812000Y+2284000D03*
X+7558000Y+2284000D03*
X+7304000Y+2284000D03*
D17*
X+7050000Y+2284000D03*
D16*
X+6796000Y+2284000D03*
X+6542000Y+2284000D03*
X+6288000Y+2284000D03*
X+6034000Y+2284000D03*
X+5780000Y+2284000D03*
X+5526000Y+2284000D03*
X+5272000Y+2284000D03*
X+5018000Y+2284000D03*
X+4764000Y+2284000D03*
X+4510000Y+2284000D03*
D17*
X+4256000Y+2284000D03*
D16*
X+4002000Y+2284000D03*
X+3748000Y+2284000D03*
X+3494000Y+2284000D03*
X+3240000Y+2284000D03*
X+1310000Y+2120000D03*
X+1310000Y+1470000D03*
X+860000Y+2120000D03*
X+860000Y+1470000D03*
X+2120000Y+2930000D03*
X+2120000Y+2280000D03*
X+1670000Y+2930000D03*
X+1670000Y+2280000D03*
X+2930000Y+2110000D03*
X+2930000Y+1460000D03*
X+2480000Y+2110000D03*
X+2480000Y+1460000D03*
X+2120000Y+1300000D03*
X+2120000Y+650000D03*
X+1670000Y+1300000D03*
X+1670000Y+650000D03*
X+4960000Y+1240000D03*
X+4960000Y+590000D03*
X+4510000Y+1240000D03*
X+4510000Y+590000D03*
X+6460000Y+1230000D03*
X+6460000Y+580000D03*
X+6010000Y+1230000D03*
X+6010000Y+580000D03*
X+8980000Y+2110000D03*
X+8980000Y+1460000D03*
X+8530000Y+2110000D03*
X+8530000Y+1460000D03*
X+10330000Y+3110000D03*
X+10330000Y+2460000D03*
X+9880000Y+3110000D03*
X+9880000Y+2460000D03*
X+11670000Y+2130000D03*
X+11670000Y+1480000D03*
X+11220000Y+2130000D03*
X+11220000Y+1480000D03*
X+10320000Y+1120000D03*
X+10320000Y+470000D03*
X+9870000Y+1120000D03*
X+9870000Y+470000D03*
D17*
X+4260000Y+2660000D03*
X+4000000Y+2660000D03*
X+7050000Y+2660000D03*
X+7300000Y+2660000D03*
D18*
X+500000Y+3020000D03*
X+500000Y+500000D03*
X+11640000Y+3010000D03*
X+11640000Y+500000D03*
M02*
