G04 PROTEUS GERBER X2 FILE*
%TF.GenerationSoftware,Labcenter,Proteus,8.5-SP0-Build22067*%
%TF.CreationDate,2018-10-08T15:10:15+00:00*%
%TF.FileFunction,Legend,Top*%
%TF.FilePolarity,Positive*%
%TF.Part,Single*%
%FSLAX45Y45*%
%MOMM*%
G01*
%TA.AperFunction,Profile*%
%ADD14C,0.203200*%
%TA.AperFunction,Material*%
%ADD15C,0.203200*%
D14*
X+0Y+0D02*
X+12150000Y+0D01*
X+12150000Y+3520000D01*
X+0Y+3520000D01*
X+0Y+0D01*
D15*
X+3113000Y+1903000D02*
X+8193000Y+1903000D01*
X+8193000Y+2411000D01*
X+3113000Y+2411000D01*
X+3113000Y+1903000D01*
X+710000Y+1320000D02*
X+1460000Y+1320000D01*
X+1460000Y+2270000D01*
X+710000Y+2270000D01*
X+710000Y+1320000D01*
X+1520000Y+2130000D02*
X+2270000Y+2130000D01*
X+2270000Y+3080000D01*
X+1520000Y+3080000D01*
X+1520000Y+2130000D01*
X+2330000Y+1310000D02*
X+3080000Y+1310000D01*
X+3080000Y+2260000D01*
X+2330000Y+2260000D01*
X+2330000Y+1310000D01*
X+1520000Y+500000D02*
X+2270000Y+500000D01*
X+2270000Y+1450000D01*
X+1520000Y+1450000D01*
X+1520000Y+500000D01*
X+4360000Y+440000D02*
X+5110000Y+440000D01*
X+5110000Y+1390000D01*
X+4360000Y+1390000D01*
X+4360000Y+440000D01*
X+5860000Y+430000D02*
X+6610000Y+430000D01*
X+6610000Y+1380000D01*
X+5860000Y+1380000D01*
X+5860000Y+430000D01*
X+8380000Y+1310000D02*
X+9130000Y+1310000D01*
X+9130000Y+2260000D01*
X+8380000Y+2260000D01*
X+8380000Y+1310000D01*
X+9730000Y+2310000D02*
X+10480000Y+2310000D01*
X+10480000Y+3260000D01*
X+9730000Y+3260000D01*
X+9730000Y+2310000D01*
X+11070000Y+1330000D02*
X+11820000Y+1330000D01*
X+11820000Y+2280000D01*
X+11070000Y+2280000D01*
X+11070000Y+1330000D01*
X+9720000Y+320000D02*
X+10470000Y+320000D01*
X+10470000Y+1270000D01*
X+9720000Y+1270000D01*
X+9720000Y+320000D01*
X+4210000Y+2788080D02*
X+4210000Y+2879520D01*
X+4257625Y+2879520D01*
X+4267150Y+2864280D01*
X+4267150Y+2849040D01*
X+4257625Y+2833800D01*
X+4210000Y+2833800D01*
X+4257625Y+2833800D02*
X+4267150Y+2818560D01*
X+4267150Y+2788080D01*
X+4286200Y+2803320D02*
X+4295725Y+2788080D01*
X+4333825Y+2788080D01*
X+4343350Y+2803320D01*
X+4343350Y+2818560D01*
X+4333825Y+2833800D01*
X+4295725Y+2833800D01*
X+4286200Y+2849040D01*
X+4286200Y+2864280D01*
X+4295725Y+2879520D01*
X+4333825Y+2879520D01*
X+4343350Y+2864280D01*
X+3940000Y+2859520D02*
X+3940000Y+2768080D01*
X+3997150Y+2768080D01*
X+4016200Y+2783320D02*
X+4025725Y+2768080D01*
X+4063825Y+2768080D01*
X+4073350Y+2783320D01*
X+4073350Y+2798560D01*
X+4063825Y+2813800D01*
X+4025725Y+2813800D01*
X+4016200Y+2829040D01*
X+4016200Y+2844280D01*
X+4025725Y+2859520D01*
X+4063825Y+2859520D01*
X+4073350Y+2844280D01*
X+6988100Y+2798560D02*
X+7007150Y+2798560D01*
X+7007150Y+2768080D01*
X+6969050Y+2768080D01*
X+6950000Y+2798560D01*
X+6950000Y+2829040D01*
X+6969050Y+2859520D01*
X+6997625Y+2859520D01*
X+7007150Y+2844280D01*
X+7026200Y+2768080D02*
X+7026200Y+2859520D01*
X+7083350Y+2768080D01*
X+7083350Y+2859520D01*
X+7102400Y+2768080D02*
X+7102400Y+2859520D01*
X+7140500Y+2859520D01*
X+7159550Y+2829040D01*
X+7159550Y+2798560D01*
X+7140500Y+2768080D01*
X+7102400Y+2768080D01*
X+7248100Y+2798560D02*
X+7267150Y+2798560D01*
X+7267150Y+2768080D01*
X+7229050Y+2768080D01*
X+7210000Y+2798560D01*
X+7210000Y+2829040D01*
X+7229050Y+2859520D01*
X+7257625Y+2859520D01*
X+7267150Y+2844280D01*
X+7286200Y+2768080D02*
X+7286200Y+2859520D01*
X+7343350Y+2768080D01*
X+7343350Y+2859520D01*
X+7362400Y+2768080D02*
X+7362400Y+2859520D01*
X+7400500Y+2859520D01*
X+7419550Y+2829040D01*
X+7419550Y+2798560D01*
X+7400500Y+2768080D01*
X+7362400Y+2768080D01*
X+3701240Y+1756080D02*
X+3710765Y+1740840D01*
X+3748865Y+1740840D01*
X+3758390Y+1756080D01*
X+3758390Y+1771320D01*
X+3748865Y+1786560D01*
X+3710765Y+1786560D01*
X+3701240Y+1801800D01*
X+3701240Y+1817040D01*
X+3710765Y+1832280D01*
X+3748865Y+1832280D01*
X+3758390Y+1817040D01*
X+3777440Y+1832280D02*
X+3834590Y+1832280D01*
X+3806015Y+1832280D02*
X+3806015Y+1740840D01*
X+4213400Y+1735600D02*
X+4222925Y+1720360D01*
X+4261025Y+1720360D01*
X+4270550Y+1735600D01*
X+4270550Y+1750840D01*
X+4261025Y+1766080D01*
X+4222925Y+1766080D01*
X+4213400Y+1781320D01*
X+4213400Y+1796560D01*
X+4222925Y+1811800D01*
X+4261025Y+1811800D01*
X+4270550Y+1796560D01*
X+4289600Y+1811800D02*
X+4289600Y+1720360D01*
X+4346750Y+1720360D01*
X+3468600Y+1801580D02*
X+3468600Y+1710140D01*
X+3525750Y+1710140D01*
X+3459080Y+2495000D02*
X+3459080Y+2586440D01*
X+3506705Y+2586440D01*
X+3516230Y+2571200D01*
X+3516230Y+2555960D01*
X+3506705Y+2540720D01*
X+3459080Y+2540720D01*
X+3506705Y+2540720D02*
X+3516230Y+2525480D01*
X+3516230Y+2495000D01*
X+3703840Y+2574540D02*
X+3703840Y+2498340D01*
X+3713365Y+2483100D01*
X+3751465Y+2483100D01*
X+3760990Y+2498340D01*
X+3760990Y+2574540D01*
X+3780040Y+2483100D02*
X+3780040Y+2574540D01*
X+3827665Y+2574540D01*
X+3837190Y+2559300D01*
X+3837190Y+2544060D01*
X+3827665Y+2528820D01*
X+3780040Y+2528820D01*
X+3176380Y+1697760D02*
X+3176380Y+1789200D01*
X+3214480Y+1789200D01*
X+3233530Y+1758720D01*
X+3233530Y+1728240D01*
X+3214480Y+1697760D01*
X+3176380Y+1697760D01*
X+3252580Y+1789200D02*
X+3252580Y+1697760D01*
X+3281155Y+1743480D01*
X+3309730Y+1697760D01*
X+3309730Y+1789200D01*
X+5512700Y+1714120D02*
X+5512700Y+1775080D01*
X+5531750Y+1805560D01*
X+5550800Y+1805560D01*
X+5569850Y+1775080D01*
X+5569850Y+1714120D01*
X+5512700Y+1744600D02*
X+5569850Y+1744600D01*
X+6004920Y+1711900D02*
X+6004920Y+1803340D01*
X+6052545Y+1803340D01*
X+6062070Y+1788100D01*
X+6062070Y+1772860D01*
X+6052545Y+1757620D01*
X+6062070Y+1742380D01*
X+6062070Y+1727140D01*
X+6052545Y+1711900D01*
X+6004920Y+1711900D01*
X+6004920Y+1757620D02*
X+6052545Y+1757620D01*
X+4466560Y+2618160D02*
X+4542760Y+2526720D01*
X+4466560Y+2526720D02*
X+4542760Y+2618160D01*
X+6337300Y+1767840D02*
X+6261100Y+1676400D01*
X+6261100Y+1767840D02*
X+6299200Y+1722120D01*
M02*
